<svg width="21" height="20" viewBox="0 0 21 20" fill="none" xmlns="http://www.w3.org/2000/svg">
<path d="M9.2859 2.93912C8.8661 2.93912 8.52539 2.60682 8.52539 2.19737V1.45562C8.52539 1.04617 8.8661 0.713867 9.2859 0.713867C9.7057 0.713867 10.0464 1.04617 10.0464 1.45562V2.19737C10.0464 2.60682 9.7057 2.93912 9.2859 2.93912Z" fill="white"/>
<path d="M15.9225 9.41279C15.5027 9.41279 15.162 9.08048 15.162 8.67103C15.162 5.65655 12.6523 3.08787 9.56771 2.94545C6.47927 2.80637 3.72585 5.1262 3.43495 8.12325C3.41746 8.30238 3.40872 8.48634 3.40872 8.67103C3.40872 9.08048 3.06801 9.41279 2.64821 9.41279C2.2284 9.41279 1.8877 9.08048 1.8877 8.67103C1.8877 8.43961 1.89872 8.20818 1.92078 7.98343C2.28696 4.2094 5.75375 1.28541 9.63957 1.4638C13.5235 1.64294 16.683 4.87623 16.683 8.67103C16.683 9.08085 16.3423 9.41279 15.9225 9.41279Z" fill="white"/>
<path d="M17.3486 14.4722C17.1611 14.4722 16.9729 14.4047 16.8257 14.2693C15.7686 13.2931 15.1621 11.9187 15.1621 10.4986C15.1621 10.0891 15.5028 9.75684 15.9226 9.75684C16.3424 9.75684 16.6831 10.0891 16.6831 10.4986C16.6831 11.5129 17.1162 12.495 17.8714 13.1919C18.1764 13.4734 18.1897 13.9429 17.9011 14.2407C17.7516 14.3943 17.5501 14.4722 17.3486 14.4722Z" fill="white"/>
<path d="M1.22248 14.4722C1.02056 14.4722 0.819408 14.3946 0.669967 14.2404C0.381354 13.9429 0.394663 13.4734 0.699627 13.1919C1.45481 12.495 1.88792 11.5133 1.88792 10.4986C1.88792 10.0891 2.22863 9.75684 2.64843 9.75684C3.06824 9.75684 3.40895 10.0891 3.40895 10.4986C3.40895 11.9194 2.80244 13.2939 1.74533 14.2693C1.59779 14.4047 1.40994 14.4722 1.22248 14.4722Z" fill="white"/>
<path d="M9.28594 19.9993C7.22496 19.9993 5.4834 18.3007 5.4834 16.2906C5.4834 15.8811 5.82411 15.5488 6.24391 15.5488C6.66371 15.5488 7.00442 15.8811 7.00442 16.2906C7.00442 17.4967 8.04936 18.5158 9.28594 18.5158C10.5225 18.5158 11.5675 17.4967 11.5675 16.2906C11.5675 15.8811 11.9082 15.5488 12.328 15.5488C12.7478 15.5488 13.0885 15.8811 13.0885 16.2906C13.0885 18.3007 11.3469 19.9993 9.28594 19.9993Z" fill="white"/>
<path d="M2.26786 17.0323C1.34118 17.0323 0.516791 16.4797 0.167337 15.6245C-0.182498 14.7681 0.0262619 13.8131 0.699313 13.1915C1.00428 12.9097 1.4853 12.9226 1.77467 13.2201C2.06329 13.5175 2.05036 13.987 1.74539 14.2689C1.41229 14.5767 1.53473 14.9643 1.58036 15.0756C1.62561 15.1861 1.80928 15.5488 2.26786 15.5488C2.68766 15.5488 3.02837 15.8811 3.02837 16.2906C3.02837 16.7 2.68804 17.0323 2.26786 17.0323Z" fill="white"/>
<path d="M16.3035 17.0327C15.8837 17.0327 15.543 16.7004 15.543 16.291C15.543 15.8815 15.8837 15.5492 16.3035 15.5492C16.7624 15.5492 16.9465 15.185 16.9921 15.0734C17.0374 14.9625 17.1594 14.5764 16.8263 14.269C16.5214 13.9871 16.5081 13.5179 16.7967 13.2201C17.0857 12.9227 17.5667 12.9097 17.872 13.1912C18.5451 13.8128 18.7542 14.767 18.4051 15.6219C18.0553 16.479 17.2302 17.0327 16.3035 17.0327Z" fill="white"/>
<path d="M2.64821 11.2401C2.22841 11.2401 1.8877 10.9078 1.8877 10.4984V8.67144C1.8877 8.26199 2.22841 7.92969 2.64821 7.92969C3.06801 7.92969 3.40872 8.26199 3.40872 8.67144V10.4984C3.40872 10.9078 3.06839 11.2401 2.64821 11.2401Z" fill="white"/>
<path d="M15.9226 11.2401C15.5028 11.2401 15.1621 10.9078 15.1621 10.4984V8.67144C15.1621 8.26199 15.5028 7.92969 15.9226 7.92969C16.3424 7.92969 16.6831 8.26199 16.6831 8.67144V10.4984C16.6831 10.9078 16.3424 11.2401 15.9226 11.2401Z" fill="white"/>
<path d="M16.3035 17.0323H2.26832C1.84852 17.0323 1.50781 16.7 1.50781 16.2906C1.50781 15.8811 1.84852 15.5488 2.26832 15.5488H16.3031C16.7229 15.5488 17.0637 15.8811 17.0637 16.2906C17.0637 16.7 16.7233 17.0323 16.3035 17.0323Z" fill="white"/>
<circle cx="15.857" cy="4.28571" r="3.78571" fill="#E45D32" stroke="white"/>
</svg>
